<svg id="Layer_1" data-name="Layer 1" xmlns="http://www.w3.org/2000/svg" xmlns:xlink="http://www.w3.org/1999/xlink" viewBox="0 0 1000.17 887.19"><defs><style>.cls-1{fill:url(#radial-gradient);}.cls-2{fill:url(#radial-gradient-2);}.cls-3{fill:url(#radial-gradient-3);}.cls-4{fill:url(#radial-gradient-4);}.cls-5{fill:url(#radial-gradient-5);}.cls-6{fill:url(#radial-gradient-6);}</style><radialGradient id="radial-gradient" cx="248.09" cy="45.99" r="241.9" gradientTransform="matrix(-1, 0, 0, 1, 1009.87, 0)" gradientUnits="userSpaceOnUse"><stop offset="0" stop-color="#d1cbc3"/><stop offset="0.35" stop-color="#c7c1b9"/><stop offset="0.94" stop-color="#ada7a0"/><stop offset="1" stop-color="#aaa49d"/></radialGradient><radialGradient id="radial-gradient-2" cx="297.38" cy="304.99" fx="182.36704607467635" r="476.87" gradientUnits="userSpaceOnUse"><stop offset="0.16" stop-color="#fefefe"/><stop offset="0.37" stop-color="#f7f6f4"/><stop offset="0.74" stop-color="#e2dfda"/><stop offset="1" stop-color="#d1cbc3"/></radialGradient><radialGradient id="radial-gradient-3" cx="217.24" cy="770.56" r="55.84" gradientUnits="userSpaceOnUse"><stop offset="0" stop-color="#7dbac7"/><stop offset="0.45" stop-color="#7bb9c6"/><stop offset="0.7" stop-color="#73b5c1"/><stop offset="0.89" stop-color="#65aeb9"/><stop offset="1" stop-color="#59a8b2"/></radialGradient><radialGradient id="radial-gradient-4" cx="570.03" cy="876.73" r="55.84" xlink:href="#radial-gradient-3"/><radialGradient id="radial-gradient-5" cx="425.82" cy="686.95" r="28.88" xlink:href="#radial-gradient-3"/><radialGradient id="radial-gradient-6" cx="757.6" cy="724.11" r="28.88" xlink:href="#radial-gradient-3"/></defs><title>drizzle</title><path class="cls-1" d="M523.07,236.18a86.49,86.49,0,0,1,110-99.37A135.24,135.24,0,0,1,891.55,186a110.15,110.15,0,0,1,4.17,220.14,21.91,21.91,0,0,1-2.45.16H529.42a85.2,85.2,0,0,1-6.35-170.16Z" transform="translate(0.17 -56.9)"/><path class="cls-2" d="M719.83,344.36a130.55,130.55,0,0,0-166-150A204.19,204.19,0,0,0,367.51,73.71c-109.68,0-199.14,86.48-204,195A166.29,166.29,0,0,0,157.25,601a32.38,32.38,0,0,0,3.7.24H709.27l.33,0,.65,0a128.62,128.62,0,0,0,9.58-256.88Z" transform="translate(0.17 -56.9)"/><path class="cls-3" d="M258.47,796.68a41.24,41.24,0,0,1-82.47,0c0-22.78,41.24-93.47,41.24-93.47S258.47,773.9,258.47,796.68Z" transform="translate(0.17 -56.9)"/><path class="cls-4" d="M611.27,902.85a41.24,41.24,0,0,1-82.47,0c0-22.78,41.23-93.47,41.23-93.47S611.27,880.07,611.27,902.85Z" transform="translate(0.17 -56.9)"/><path class="cls-5" d="M447.15,700.46a21.33,21.33,0,0,1-42.66,0c0-11.78,21.33-48.35,21.33-48.35S447.15,688.68,447.15,700.46Z" transform="translate(0.17 -56.9)"/><path class="cls-6" d="M778.93,737.62a21.33,21.33,0,0,1-42.66,0c0-11.78,21.33-48.35,21.33-48.35S778.93,725.84,778.93,737.62Z" transform="translate(0.17 -56.9)"/></svg>