<svg id="Layer_1" data-name="Layer 1" xmlns="http://www.w3.org/2000/svg" xmlns:xlink="http://www.w3.org/1999/xlink" viewBox="0 0 1000.17 759.15"><defs><style>.cls-1{fill:url(#radial-gradient);}.cls-2{fill:url(#radial-gradient-2);}.cls-3{fill:url(#radial-gradient-3);}.cls-4{fill:url(#radial-gradient-4);}.cls-5{fill:url(#radial-gradient-5);}.cls-6{fill:url(#radial-gradient-6);}.cls-7{fill:url(#radial-gradient-7);}.cls-8{fill:url(#radial-gradient-8);}.cls-9{fill:url(#radial-gradient-9);}</style><radialGradient id="radial-gradient" cx="248.09" cy="111.51" r="241.9" gradientTransform="matrix(-1, 0, 0, 1, 1009.87, 0)" gradientUnits="userSpaceOnUse"><stop offset="0" stop-color="#d1cbc3"/><stop offset="0.35" stop-color="#c7c1b9"/><stop offset="0.94" stop-color="#ada7a0"/><stop offset="1" stop-color="#aaa49d"/></radialGradient><radialGradient id="radial-gradient-2" cx="297.38" cy="370.51" fx="182.36704607467092" r="476.87" gradientUnits="userSpaceOnUse"><stop offset="0.16" stop-color="#fefefe"/><stop offset="0.37" stop-color="#f7f6f4"/><stop offset="0.74" stop-color="#e2dfda"/><stop offset="1" stop-color="#d1cbc3"/></radialGradient><radialGradient id="radial-gradient-3" cx="321.73" cy="746.08" r="100.98" gradientTransform="translate(-105.03 -94.57)" gradientUnits="userSpaceOnUse"><stop offset="0" stop-color="#7dbac7"/><stop offset="0.45" stop-color="#7bb9c6"/><stop offset="0.7" stop-color="#73b5c1"/><stop offset="0.89" stop-color="#65aeb9"/><stop offset="1" stop-color="#59a8b2"/></radialGradient><radialGradient id="radial-gradient-4" cx="414.63" cy="710.09" r="100.98" gradientTransform="translate(-117.49 -110.43) scale(1 1.14)" xlink:href="#radial-gradient-3"/><radialGradient id="radial-gradient-5" cx="368.18" cy="674.92" r="100.98" gradientTransform="translate(-119.17 -343.1) scale(1 1.53)" xlink:href="#radial-gradient-3"/><radialGradient id="radial-gradient-6" cx="457.91" cy="665.88" r="100.98" gradientTransform="translate(-83.5 -4.21)" xlink:href="#radial-gradient-3"/><radialGradient id="radial-gradient-7" cx="608.22" cy="588.39" r="100.98" gradientTransform="translate(-65.93 93.63)" xlink:href="#radial-gradient-3"/><radialGradient id="radial-gradient-8" cx="550.81" cy="639.69" r="100.98" gradientTransform="translate(-95.96 -20.07) scale(1 1.14)" xlink:href="#radial-gradient-3"/><radialGradient id="radial-gradient-9" cx="504.36" cy="622.36" r="100.98" gradientTransform="translate(-97.64 -252.74) scale(1 1.53)" xlink:href="#radial-gradient-3"/></defs><title>rain</title><path class="cls-1" d="M523.07,301.7a86.49,86.49,0,0,1,110-99.37,135.24,135.24,0,0,1,258.51,49.24,110.15,110.15,0,0,1,4.17,220.13,19.77,19.77,0,0,1-2.45.16H529.42a85.2,85.2,0,0,1-6.35-170.16Z" transform="translate(0.17 -122.42)"/><path class="cls-2" d="M719.83,409.89a130.57,130.57,0,0,0-166-150A204.19,204.19,0,0,0,367.51,139.23c-109.68,0-199.14,86.48-204,195a166.29,166.29,0,0,0-6.29,332.32,30.25,30.25,0,0,0,3.7.24h549.3a128.61,128.61,0,0,0,9.58-256.87Z" transform="translate(0.17 -122.42)"/><rect class="cls-3" x="206.52" y="509.06" width="20.35" height="284.89" rx="1.79" transform="translate(403.65 -131.62) rotate(34.18)"/><rect class="cls-4" x="286.96" y="536.16" width="20.35" height="324.52" rx="1.79" transform="translate(443.91 -168.71) rotate(34.18)"/><rect class="cls-5" x="238.84" y="469.28" width="20.35" height="434.65" rx="1.79" transform="translate(428.96 -143.71) rotate(34.18)"/><rect class="cls-6" x="364.23" y="519.23" width="20.35" height="284.89" rx="1.79" transform="translate(436.62 -218.47) rotate(34.18)"/><rect class="cls-7" x="532.11" y="539.58" width="20.35" height="284.89" rx="1.79" transform="translate(477.05 -309.28) rotate(34.18)"/><rect class="cls-8" x="444.67" y="546.33" width="20.35" height="324.52" rx="1.79" transform="translate(476.87 -255.56) rotate(34.18)"/><rect class="cls-9" x="396.54" y="479.45" width="20.35" height="434.65" rx="1.79" transform="translate(461.92 -230.56) rotate(34.18)"/></svg>