<svg id="Layer_1" data-name="Layer 1" xmlns="http://www.w3.org/2000/svg" xmlns:xlink="http://www.w3.org/1999/xlink" viewBox="0 0 956.17 992.5"><defs><style>.cls-1{fill:url(#radial-gradient);}.cls-2{fill:url(#radial-gradient-2);}.cls-3{fill:url(#radial-gradient-3);}.cls-4{fill:url(#radial-gradient-4);}.cls-5{fill:url(#radial-gradient-5);}.cls-6{fill:url(#radial-gradient-6);}</style><radialGradient id="radial-gradient" cx="336.3" cy="864.06" r="77.61" gradientUnits="userSpaceOnUse"><stop offset="0.16" stop-color="#fefefe"/><stop offset="0.37" stop-color="#f7f6f4"/><stop offset="0.74" stop-color="#e2dfda"/><stop offset="1" stop-color="#d1cbc3"/></radialGradient><radialGradient id="radial-gradient-2" cx="746.47" cy="749.56" r="102.25" xlink:href="#radial-gradient"/><radialGradient id="radial-gradient-3" cx="497.18" cy="714.77" r="44.27" xlink:href="#radial-gradient"/><radialGradient id="radial-gradient-4" cx="566.75" cy="952.47" r="44.27" xlink:href="#radial-gradient"/><radialGradient id="radial-gradient-5" cx="201.51" cy="703.18" r="44.27" xlink:href="#radial-gradient"/><radialGradient id="radial-gradient-6" cx="360.91" cy="267.81" fx="229.84655909591496" r="543.44" xlink:href="#radial-gradient"/></defs><title>snow</title><path class="cls-1" d="M410,860.17H396.28l9.66-8.79a2.36,2.36,0,1,0-3.18-3.49l-13.51,12.28H364.33a27.43,27.43,0,0,0-5.55-12.74L377,829.25l18.15-.86a2.36,2.36,0,1,0-.22-4.72l-13,.61,9.65-9.64a3.94,3.94,0,0,0-5.57-5.57l-9.73,9.72.63-13.11a2.37,2.37,0,0,0-4.73-.22l-.86,18.3L353.07,842a27.34,27.34,0,0,0-12.78-4.93V811l12.18-13.4a2.36,2.36,0,1,0-3.49-3.18L340.29,804V790.39a3.94,3.94,0,0,0-7.88,0v13.69l-8.78-9.66a2.36,2.36,0,0,0-3.5,3.18l12.28,13.5v26.21a27.33,27.33,0,0,0-11.7,5L302,823.61l-.87-18.15a2.32,2.32,0,0,0-2.47-2.25,2.37,2.37,0,0,0-2.25,2.47l.62,13-9.91-9.9a3.94,3.94,0,1,0-5.57,5.57l10,10-13.1-.62a2.32,2.32,0,0,0-2.47,2.24,2.36,2.36,0,0,0,2.24,2.48l18.3.87,18.65,18.64a27.35,27.35,0,0,0-5.2,12.27H283.71l-13.5-12.28a2.36,2.36,0,1,0-3.18,3.49l9.66,8.79H262.63a3.94,3.94,0,1,0,0,7.88h13.95L267,876.73a2.36,2.36,0,0,0,1.59,4.11,2.39,2.39,0,0,0,1.59-.61l13.39-12.18h26.21a27.42,27.42,0,0,0,4.86,12.35l-18.2,18.2-18.3.87a2.36,2.36,0,0,0,.12,4.72h.11l13.11-.62-10,10a3.94,3.94,0,0,0,5.57,5.57l9.91-9.91-.62,13a2.37,2.37,0,0,0,2.25,2.48h.12a2.36,2.36,0,0,0,2.35-2.25l.87-18.15,18.14-18.14a27.3,27.3,0,0,0,12.3,5.48v25.06l-12.28,13.5a2.36,2.36,0,1,0,3.5,3.18l8.78-9.66v14.05a3.94,3.94,0,0,0,7.88,0V923.78l8.69,9.55a2.31,2.31,0,0,0,1.74.78,2.37,2.37,0,0,0,1.75-4l-12.18-13.4V891.83a27.34,27.34,0,0,0,13.38-5.37l17.65,17.64.86,18.3a2.37,2.37,0,0,0,2.36,2.25h.12a2.37,2.37,0,0,0,2.25-2.48l-.63-13.1,9.73,9.72a3.94,3.94,0,0,0,5.57-5.57l-9.65-9.65,13,.62H395a2.36,2.36,0,0,0,.11-4.72L377,898.61l-17.73-17.74a27.47,27.47,0,0,0,5.21-12.82h24.92l13.4,12.18a2.35,2.35,0,0,0,1.59.61,2.36,2.36,0,0,0,1.59-4.11l-9.55-8.68H410a3.94,3.94,0,0,0,0-7.88Zm-50.41,0H346.05l9.36-9.36A22.74,22.74,0,0,1,359.56,860.17Zm-9.87-14.78-9.4,9.39V841.85A22.62,22.62,0,0,1,349.69,845.39Zm-17.28-3.29v11.95l-8.33-8.33A22.74,22.74,0,0,1,332.41,842.1Zm-13.92,9.17,8.89,8.9H314.69A22.77,22.77,0,0,1,318.49,851.27Zm-3.9,16.78H327l-9,9A22.55,22.55,0,0,1,314.59,868.05Zm8.89,14.68,8.93-8.93v13A22.69,22.69,0,0,1,323.48,882.73Zm16.81,4.32v-14l10,10A22.67,22.67,0,0,1,340.29,887.05Zm15.56-9.55-9.45-9.45h13.26A22.6,22.6,0,0,1,355.85,877.5Z" transform="translate(-21.83 -4.24)"/><path class="cls-2" d="M843.53,744.43h-18l12.73-11.57a3.11,3.11,0,0,0-4.19-4.61l-17.79,16.18H783.4a36.07,36.07,0,0,0-7.31-16.77l23.95-24L824,702.56a3.11,3.11,0,0,0-.3-6.22l-17.07.81,12.71-12.71a5.19,5.19,0,0,0-7.34-7.33l-12.81,12.81.82-17.27a3.11,3.11,0,1,0-6.22-.3l-1.15,24.11-24,24A36.21,36.21,0,0,0,751.73,714V679.65l16-17.65a3.11,3.11,0,0,0-4.61-4.19l-11.44,12.58V652.5a5.19,5.19,0,1,0-10.38,0v18l-11.58-12.73a3.11,3.11,0,1,0-4.6,4.19l16.18,17.79v34.53A36.13,36.13,0,0,0,725.92,721l-24.68-24.69-1.14-23.92a3.07,3.07,0,0,0-3.26-3,3.12,3.12,0,0,0-3,3.26l.81,17.07-13.05-13.05A5.19,5.19,0,0,0,674.3,684l13.15,13.15-17.26-.82a3.08,3.08,0,0,0-3.26,3,3.11,3.11,0,0,0,3,3.26L694,703.71l24.56,24.56a36.19,36.19,0,0,0-6.85,16.16H677.19l-17.8-16.18a3.11,3.11,0,0,0-4.19,4.61l12.73,11.57H649.42a5.19,5.19,0,0,0,0,10.38h18.37L655.2,766.26a3.11,3.11,0,0,0,2.1,5.41,3.08,3.08,0,0,0,2.09-.81L677,754.81h34.53a36.15,36.15,0,0,0,6.4,16.28l-24,24-24.11,1.14a3.12,3.12,0,0,0,.15,6.23h.15l17.26-.82L674.3,814.76a5.19,5.19,0,0,0,7.34,7.34l13.05-13.05-.81,17.08a3.11,3.11,0,0,0,3,3.25H697a3.12,3.12,0,0,0,3.11-3l1.14-23.91,23.9-23.9a36.11,36.11,0,0,0,16.21,7.23v33l-16.18,17.8a3.11,3.11,0,1,0,4.6,4.19l11.58-12.73v18.51a5.19,5.19,0,1,0,10.38,0V828.24l11.44,12.59a3.11,3.11,0,0,0,4.61-4.19l-16-17.65V786.15a36.17,36.17,0,0,0,17.63-7.08l23.24,23.24,1.15,24.11a3.11,3.11,0,0,0,3.11,3H797a3.11,3.11,0,0,0,3-3.25l-.82-17.27L812,821.67a5.19,5.19,0,0,0,7.34-7.34l-12.71-12.71,17.07.81h.15a3.12,3.12,0,0,0,.15-6.23L800,795.07l-23.36-23.36a36.09,36.09,0,0,0,6.86-16.9h32.84L834,770.86a3.11,3.11,0,1,0,4.19-4.6l-12.58-11.45h17.89a5.19,5.19,0,0,0,0-10.38Zm-66.42,0h-17.8l12.33-12.33A29.81,29.81,0,0,1,777.11,744.43Zm-13-19.47-12.38,12.38v-17A29.94,29.94,0,0,1,764.11,725Zm-22.76-4.33v15.75l-11-11A29.82,29.82,0,0,1,741.35,720.63ZM723,732.72l11.71,11.71H718A29.78,29.78,0,0,1,723,732.72Zm-5.15,22.09h16.39l-11.81,11.82A30,30,0,0,1,717.86,754.81Zm11.72,19.35,11.77-11.76v17.13A29.9,29.9,0,0,1,729.58,774.16Zm22.15,5.7V761.44l13.19,13.19A30,30,0,0,1,751.73,779.86Zm20.5-12.59-12.45-12.46h17.47A29.93,29.93,0,0,1,772.23,767.27Z" transform="translate(-21.83 -4.24)"/><path class="cls-3" d="M539.2,712.55h-7.8l5.51-5a1.35,1.35,0,1,0-1.82-2l-7.7,7H513.17a15.58,15.58,0,0,0-3.17-7.26l10.38-10.37,10.35-.49A1.35,1.35,0,0,0,532,693a1.33,1.33,0,0,0-1.41-1.28l-7.39.35,5.5-5.5a2.25,2.25,0,1,0-3.17-3.18L520,689l.35-7.48a1.35,1.35,0,0,0-2.69-.13l-.5,10.44-10.4,10.41a15.67,15.67,0,0,0-7.29-2.81V684.5l7-7.64a1.35,1.35,0,0,0-2-1.81l-5,5.45v-7.75a2.25,2.25,0,0,0-4.5,0v7.81l-5-5.51a1.34,1.34,0,0,0-1.9-.09,1.33,1.33,0,0,0-.09,1.9l7,7.71v14.94a15.72,15.72,0,0,0-6.68,2.88L477.59,691.7l-.49-10.36a1.32,1.32,0,0,0-1.41-1.28,1.35,1.35,0,0,0-1.28,1.41l.35,7.4-5.65-5.66a2.25,2.25,0,1,0-3.18,3.18l5.7,5.7-7.48-.36a1.33,1.33,0,0,0-1.41,1.28,1.35,1.35,0,0,0,1.28,1.42l10.44.49,10.64,10.64a15.63,15.63,0,0,0-3,7H467.18l-7.7-7a1.35,1.35,0,1,0-1.82,2l5.51,5h-8a2.25,2.25,0,0,0,0,4.5h7.95l-5.45,5a1.35,1.35,0,0,0,.91,2.35,1.39,1.39,0,0,0,.91-.35l7.64-7h14.95a15.73,15.73,0,0,0,2.77,7.05l-10.38,10.38L464,735a1.35,1.35,0,0,0,.07,2.7h.06l7.48-.36-5.7,5.7a2.25,2.25,0,0,0,3.18,3.17l5.65-5.65-.35,7.4a1.35,1.35,0,0,0,1.28,1.41h.07a1.34,1.34,0,0,0,1.34-1.29l.49-10.35,10.35-10.35a15.62,15.62,0,0,0,7,3.13v14.29l-7,7.71a1.33,1.33,0,0,0,.09,1.9,1.29,1.29,0,0,0,.9.35,1.36,1.36,0,0,0,1-.44l5-5.51v8a2.25,2.25,0,0,0,4.5,0v-8l5,5.45a1.36,1.36,0,0,0,1,.44,1.35,1.35,0,0,0,1-2.25l-7-7.65V730.62a15.7,15.7,0,0,0,7.63-3.07l10.06,10.07.5,10.43a1.35,1.35,0,0,0,1.35,1.29h.06a1.35,1.35,0,0,0,1.28-1.41l-.35-7.48,5.55,5.55a2.2,2.2,0,0,0,1.58.65,2.22,2.22,0,0,0,1.59-.65,2.25,2.25,0,0,0,0-3.18l-5.5-5.51,7.39.36h.07a1.35,1.35,0,0,0,.06-2.7l-10.35-.49-10.12-10.12a15.68,15.68,0,0,0,3-7.31h14.22l7.64,7a1.39,1.39,0,0,0,.91.35,1.35,1.35,0,0,0,.91-2.35l-5.45-5h7.74a2.25,2.25,0,0,0,0-4.5Zm-28.75,0h-7.71l5.34-5.34A13.1,13.1,0,0,1,510.45,712.55Zm-5.63-8.43-5.36,5.36V702.1A13.15,13.15,0,0,1,504.82,704.12ZM495,702.25v6.82l-4.75-4.76A12.89,12.89,0,0,1,495,702.25ZM487,707.48l5.07,5.07h-7.24A13,13,0,0,1,487,707.48Zm-2.23,9.57h7.1l-5.12,5.11A13,13,0,0,1,484.79,717.05Zm5.08,8.38,5.09-5.1v7.42A13,13,0,0,1,489.87,725.43Zm9.59,2.46v-8l5.71,5.71A13,13,0,0,1,499.46,727.89Zm8.88-5.45-5.4-5.39h7.57A13.05,13.05,0,0,1,508.34,722.44Z" transform="translate(-21.83 -4.24)"/><path class="cls-4" d="M608.77,950.25H601l5.51-5a1.35,1.35,0,1,0-1.82-2l-7.7,7H582.74a15.64,15.64,0,0,0-3.17-7.26L590,932.61l10.35-.49a1.35,1.35,0,0,0-.13-2.69l-7.39.35,5.5-5.5a2.25,2.25,0,0,0-3.18-3.18l-5.54,5.54.35-7.47a1.35,1.35,0,0,0-2.69-.13l-.5,10.44-10.4,10.4a15.67,15.67,0,0,0-7.29-2.81V922.2l7-7.64a1.35,1.35,0,0,0-2-1.82l-5,5.45v-7.74a2.25,2.25,0,0,0-4.5,0v7.8l-5-5.51a1.35,1.35,0,0,0-2,1.82l7,7.7v15a15.71,15.71,0,0,0-6.68,2.87L547.16,929.4,546.67,919a1.32,1.32,0,0,0-1.41-1.28,1.34,1.34,0,0,0-1.28,1.41l.35,7.39-5.65-5.65a2.25,2.25,0,1,0-3.18,3.18l5.7,5.69-7.48-.35a1.33,1.33,0,0,0-1.41,1.28,1.34,1.34,0,0,0,1.28,1.41l10.44.5,10.64,10.63a15.67,15.67,0,0,0-3,7h-15l-7.7-7a1.35,1.35,0,0,0-1.82,2l5.51,5h-8a2.25,2.25,0,1,0,0,4.49h7.95l-5.45,5a1.34,1.34,0,0,0-.09,1.9,1.32,1.32,0,0,0,1,.44,1.34,1.34,0,0,0,.91-.35l7.64-7h14.95a15.52,15.52,0,0,0,2.77,7L544,972.17l-10.44.5a1.35,1.35,0,0,0,.06,2.69h.07l7.48-.35-5.7,5.69a2.25,2.25,0,1,0,3.18,3.18l5.65-5.65-.35,7.39a1.34,1.34,0,0,0,1.28,1.41h.07a1.34,1.34,0,0,0,1.34-1.28l.49-10.36,10.35-10.34a15.73,15.73,0,0,0,7,3.13v14.29l-7,7.7a1.35,1.35,0,0,0,2,1.82l5-5.51v8a2.25,2.25,0,0,0,4.5,0v-8l5,5.45a1.36,1.36,0,0,0,1,.44,1.36,1.36,0,0,0,1-2.26l-7-7.64V968.31a15.69,15.69,0,0,0,7.63-3.06l10.06,10.06.5,10.44a1.34,1.34,0,0,0,1.35,1.28h.06a1.34,1.34,0,0,0,1.28-1.41l-.35-7.47,5.54,5.54a2.25,2.25,0,1,0,3.18-3.18l-5.5-5.5,7.39.35h.07a1.35,1.35,0,0,0,.06-2.69l-10.36-.49-10.11-10.12a15.71,15.71,0,0,0,3-7.32H597l7.64,7a1.34,1.34,0,0,0,.91.35,1.32,1.32,0,0,0,1-.44,1.34,1.34,0,0,0-.09-1.9l-5.45-5h7.74a2.25,2.25,0,1,0,0-4.49Zm-28.75,0h-7.71l5.34-5.34A13,13,0,0,1,580,950.25Zm-5.63-8.43L569,947.18V939.8A12.92,12.92,0,0,1,574.39,941.82Zm-9.86-1.88v6.82L559.78,942A12.91,12.91,0,0,1,564.53,939.94Zm-7.94,5.24,5.07,5.07h-7.24A13,13,0,0,1,556.59,945.18Zm-2.23,9.56h7.1l-5.12,5.12A13,13,0,0,1,554.36,954.74Zm5.08,8.38,5.09-5.09v7.42A12.87,12.87,0,0,1,559.44,963.12Zm9.59,2.47v-8l5.71,5.71A13,13,0,0,1,569,965.59Zm8.87-5.45-5.39-5.4h7.57A13,13,0,0,1,577.9,960.14Z" transform="translate(-21.83 -4.24)"/><path class="cls-5" d="M243.53,701h-7.8l5.51-5a1.35,1.35,0,0,0-1.82-2l-7.7,7H217.5a15.64,15.64,0,0,0-3.17-7.26l10.38-10.38,10.35-.49a1.35,1.35,0,0,0,1.28-1.41,1.33,1.33,0,0,0-1.41-1.28l-7.39.35L233,675a2.25,2.25,0,0,0-3.18-3.18l-5.54,5.54.35-7.47a1.35,1.35,0,0,0-2.69-.13l-.5,10.44-10.4,10.4a15.67,15.67,0,0,0-7.29-2.81V672.91l7-7.64a1.35,1.35,0,0,0-2-1.82l-5,5.45v-7.75a2.25,2.25,0,0,0-4.5,0V669l-5-5.51a1.35,1.35,0,1,0-2,1.82l7,7.7v14.95a15.71,15.71,0,0,0-6.68,2.87L181.92,680.1l-.49-10.35a1.32,1.32,0,0,0-1.41-1.28,1.34,1.34,0,0,0-1.28,1.41l.35,7.39-5.65-5.65a2.25,2.25,0,0,0-3.18,3.18l5.7,5.69-7.48-.35a1.33,1.33,0,0,0-1.41,1.28,1.35,1.35,0,0,0,1.28,1.41l10.44.5L189.43,694a15.67,15.67,0,0,0-3,7h-15l-7.7-7a1.35,1.35,0,1,0-1.82,2l5.51,5h-8a2.25,2.25,0,1,0,0,4.49h7.95l-5.45,5a1.34,1.34,0,0,0-.09,1.9,1.32,1.32,0,0,0,1,.44,1.34,1.34,0,0,0,.91-.35l7.64-6.95h15a15.63,15.63,0,0,0,2.77,7l-10.38,10.38-10.44.5a1.35,1.35,0,0,0,.07,2.69h.06l7.48-.35-5.7,5.69a2.25,2.25,0,1,0,3.18,3.18l5.65-5.65-.35,7.39a1.34,1.34,0,0,0,1.28,1.41h.07a1.34,1.34,0,0,0,1.34-1.28l.49-10.36,10.35-10.34a15.73,15.73,0,0,0,7,3.13v14.29l-7,7.7a1.35,1.35,0,0,0,1,2.26,1.36,1.36,0,0,0,1-.44l5-5.52v8a2.25,2.25,0,0,0,4.5,0v-8l5,5.45a1.36,1.36,0,0,0,1,.44,1.36,1.36,0,0,0,1-2.26l-7-7.64V719a15.69,15.69,0,0,0,7.63-3.06L221.48,726l.5,10.44a1.34,1.34,0,0,0,1.35,1.28h.06a1.34,1.34,0,0,0,1.28-1.41l-.35-7.48,5.54,5.55a2.25,2.25,0,0,0,3.18-3.18l-5.5-5.5,7.39.35H235a1.35,1.35,0,0,0,.06-2.69l-10.35-.49-10.12-10.12a15.71,15.71,0,0,0,3-7.32h14.22l7.64,6.95a1.34,1.34,0,0,0,.91.35,1.32,1.32,0,0,0,1-.44,1.34,1.34,0,0,0-.09-1.9l-5.45-5h7.74a2.25,2.25,0,1,0,0-4.49Zm-28.75,0h-7.71l5.34-5.34A13,13,0,0,1,214.78,701Zm-5.63-8.43-5.36,5.36v-7.38A12.87,12.87,0,0,1,209.15,692.53Zm-9.86-1.88v6.82l-4.75-4.75A12.91,12.91,0,0,1,199.29,690.65Zm-7.94,5.24,5.07,5.07h-7.24A13,13,0,0,1,191.35,695.89Zm-2.23,9.56h7.1l-5.12,5.12A13,13,0,0,1,189.12,705.45Zm5.08,8.38,5.09-5.09v7.41A12.72,12.72,0,0,1,194.2,713.83Zm9.59,2.47v-8L209.5,714A13,13,0,0,1,203.79,716.3Zm8.87-5.45-5.39-5.4h7.57A13,13,0,0,1,212.66,710.85Z" transform="translate(-21.83 -4.24)"/><path class="cls-6" d="M842.33,312.68a148.79,148.79,0,0,0-189.19-171C616.75,60.7,535.41,4.24,440.83,4.24c-125,0-226.93,98.55-232.43,222.18C105.09,228,21.83,312.2,21.83,415.88c0,101.27,79.43,184,179.39,189.26a36.77,36.77,0,0,0,4.22.27H830.3l.37,0,.74,0a146.57,146.57,0,0,0,10.92-292.73Z" transform="translate(-21.83 -4.24)"/></svg>